<svg width="1440" height="902" viewBox="0 0 1440 902" fill="none" xmlns="http://www.w3.org/2000/svg">
<g opacity="0.5">
<line x1="186.5" y1="2.18557e-08" x2="186.5" y2="902" stroke="#7D7D7D"/>
<line x1="279.5" y1="93" x2="279.5" y2="902" stroke="#7D7D7D"/>
<line x1="372.5" y1="93" x2="372.5" y2="902" stroke="#7D7D7D"/>
<line x1="465.5" y1="93" x2="465.5" y2="902" stroke="#7D7D7D"/>
<line x1="558.5" y1="93" x2="558.5" y2="902" stroke="#7D7D7D"/>
<line x1="651.5" y1="93" x2="651.5" y2="902" stroke="#7D7D7D"/>
<line x1="744.5" y1="110" x2="744.5" y2="902" stroke="#7D7D7D"/>
<line x1="837.5" y1="93" x2="837.5" y2="902" stroke="#7D7D7D"/>
<line x1="930.5" y1="93" x2="930.5" y2="902" stroke="#7D7D7D"/>
<line x1="1023.5" y1="93" x2="1023.5" y2="902" stroke="#7D7D7D"/>
<line x1="1116.5" y1="93" x2="1116.5" y2="558" stroke="#7D7D7D"/>
<line x1="1116.5" y1="651" x2="1116.5" y2="902" stroke="#7D7D7D"/>
<line x1="1209.5" y1="-2.18557e-08" x2="1209.5" y2="558" stroke="#7D7D7D"/>
<line x1="1209.5" y1="651" x2="1209.5" y2="902" stroke="#7D7D7D"/>
<line x1="1302.5" y1="93" x2="1302.5" y2="902" stroke="#7D7D7D"/>
<line x1="1440" y1="93.5" y2="93.5" stroke="#7D7D7D"/>
<line x1="1302" y1="186.5" x2="186" y2="186.5" stroke="#7D7D7D"/>
<line x1="1302" y1="279.5" x2="186" y2="279.5" stroke="#7D7D7D"/>
<line x1="1302" y1="372.5" x2="186" y2="372.5" stroke="#7D7D7D"/>
<line x1="1302" y1="465.5" x2="186" y2="465.5" stroke="#7D7D7D"/>
<line x1="1302" y1="558.5" x2="186" y2="558.5" stroke="#7D7D7D"/>
<line x1="1302" y1="651.5" x2="186" y2="651.5" stroke="#7D7D7D"/>
<line x1="1302" y1="744.5" x2="186" y2="744.5" stroke="#7D7D7D"/>
<line x1="1302" y1="837.5" x2="186" y2="837.5" stroke="#7D7D7D"/>
</g>
</svg>
